<?xml version="1.0" encoding="UTF-8"?>
<svg xmlns="http://www.w3.org/2000/svg" xmlns:xlink="http://www.w3.org/1999/xlink" viewBox="0 0 500 500" width="500px" height="500px">
<g id="surface99823848">
<rect x="0" y="0" width="500" height="500" style="fill:rgb(11.372549%,11.372549%,12.54902%);fill-opacity:1;stroke:none;"/>
<path style=" stroke:none;fill-rule:nonzero;fill:rgb(100%,100%,100%);fill-opacity:1;" d="M 60 40 C 49.070312 40 40 49.070312 40 60 L 40 440 C 40 450.929688 49.070312 460 60 460 L 440 460 C 450.929688 460 460 450.929688 460 440 L 460 60 C 460 49.070312 450.929688 40 440 40 Z M 60 60 L 440 60 L 440 440 L 60 440 Z M 290 140 C 259.898438 140 232.691406 152.097656 212.792969 171.699219 C 206.992188 170.597656 201.101562 170 195 170 C 142.601562 170 100 212.601562 100 265 C 100 317.398438 142.601562 360 195 360 L 290 360 C 350.699219 360 400 310.699219 400 250 C 400 189.300781 350.699219 140 290 140 Z M 290 160 C 339.601562 160 380 200.398438 380 250 C 380 299.601562 339.601562 340 290 340 C 275.601562 340 263 336.289062 251.699219 330.390625 C 236.097656 322.289062 222.890625 309.804688 210.390625 296.503906 L 199.902344 285.097656 C 194.300781 278.996094 188.691406 272.808594 182.890625 267.109375 C 178.992188 263.210938 178.992188 256.789062 182.890625 252.890625 C 186.789062 248.992188 193.210938 248.992188 197.109375 252.890625 C 203.007812 258.890625 208.808594 265.203125 214.609375 271.601562 C 237.410156 296.5 258.898438 320 290 320 C 328.601562 320 360 288.601562 360 250 C 360 211.398438 328.601562 180 290 180 C 276.300781 180 263.191406 183.910156 251.992188 191.308594 C 246.390625 187.007812 240.308594 183.007812 233.808594 179.707031 C 249.707031 167.007812 269.398438 160 290 160 Z M 195 190 C 206.699219 190 217.292969 193.410156 226.992188 198.808594 C 232.191406 201.609375 237 204.894531 241.601562 208.59375 C 251.601562 216.394531 260.496094 225.601562 268.496094 234.101562 C 271.394531 237.101562 274.308594 240.089844 277.109375 242.890625 C 281.007812 246.789062 281.007812 253.210938 277.109375 257.109375 C 273.210938 261.007812 266.789062 261.007812 262.890625 257.109375 C 259.992188 254.210938 257.105469 251.089844 254.003906 247.890625 C 237.003906 230.089844 217.800781 210 195 210 C 164.699219 210 140 234.699219 140 265 C 140 295.300781 164.699219 320 195 320 C 198.199219 320 201.390625 319.703125 204.492188 319.101562 C 209.890625 324.5 215.808594 329.902344 222.207031 334.902344 C 213.605469 338.300781 204.398438 340 195 340 C 153.601562 340 120 306.398438 120 265 C 120 223.601562 153.601562 190 195 190 Z M 195 190 "/>
</g>
</svg>
