<?xml version="1.0" encoding="UTF-8"?>
<svg width="512pt" height="512pt" version="1.1" viewBox="0 0 512 512" xmlns="http://www.w3.org/2000/svg">
 <path d="m434.68 249.71-104.96-96.961c-2.1211-1.9648-5.2031-2.457-7.8281-1.3203-2.6406 1.1641-4.3516 3.7617-4.3516 6.6523v53.551l-235.3-0.003906c-4.0078 0-7.2617 3.2461-7.2617 7.2539v74.246c0 4.0078 3.25 7.2539 7.2617 7.2539h235.3v53.547c0 2.8945 1.7188 5.5156 4.3789 6.6602 0.93359 0.39844 1.9102 0.59375 2.8828 0.59375 1.8125 0 3.5977-0.67969 4.9727-1.9766l104.96-98.883c1.4688-1.3828 2.2891-3.3086 2.2773-5.3164-0.011719-2.0039-0.85156-3.9297-2.3359-5.2969z" fill="#fff"/>
</svg>
