<?xml version="1.0" encoding="UTF-8"?>
<svg width="512pt" height="512pt" version="1.1" viewBox="0 0 512 512" xmlns="http://www.w3.org/2000/svg">
 <path d="m484.62 202.41c-8.0938-8.1133-16.328-16.109-24.621-24.02-5.0742-4.832-11.441-13.449-18.691-14.812-2.0781-0.39453-3.6562 0.31641-4.8789 1.9883-0.31641 0.42969-0.63672 0.86719-0.94531 1.2969-1.2578 1.7148-0.25 4.3008 1.3945 5.3047 0.29688 0.17969 0.58984 0.36328 0.88672 0.54297 0.625 0.38281 1.3711 0.46094 2.0625 0.29688-0.17969 0.76953 0.70312 1.7148 2.6992 2.8398 1.7617 2.0469 3.543 4.082 5.3516 6.0977 2.7148 3.0039 5.5 5.9492 8.2695 8.9023 3.8086 4.0547 7.6445 8.0938 11.488 12.113-94.637-36.594-205.5-42.805-296.52 7.2227-20.355 11.188-39.453 25.035-55.992 41.379-11.578 11.438-22.867 24.781-29.48 39.973-3.2344 0.054688-6.4531 0.39063-9.5469 1.0039-22.16 4.3945-41.168 19.941-50.328 40.469-0.73828 1.6523 1.5664 3.1133 2.4883 1.4531 9.1133-16.43 23.648-29.031 42-33.961 4.082-1.0938 8.4062-1.7969 12.758-2.0117-1.1484 3.5312-2.0547 7.1523-2.6055 10.871-2.2227 14.852 1.2891 37.438 19.875 39.07 15.879 1.3945 27.895-12.773 25.773-28.062-2.3086-16.648-15.715-25.625-30.648-28.113 6.9531-13.82 18.094-25.621 29.227-36.035 55.602-52.016 133.01-74.047 208-70.723 38.742 1.7188 76.379 10.117 112.94 22.34-13.859 2.9844-27.719 5.9805-41.574 8.9844-8.043 1.7461-4.6406 14.066 3.3984 12.336 20.297-4.3828 40.582-8.7773 60.863-13.227 0.12109 0.046875 0.25 0.09375 0.37891 0.13672 2.6016 0.98828 4.6406 0.12109 5.8672-1.5039 2.4492-0.53906 4.8984-1.0664 7.3516-1.6094 4.6914-1.0391 5.9805-7.3164 2.7617-10.543zm-384.41 98.422c10.711 3.9727 20.922 15.797 17.215 28.008-3.082 10.145-16.906 15.113-24.188 6.5195-6.875-8.1211-5.1953-22.508-2.3906-31.871 0.46484-1.5547 1.0078-3.082 1.5859-4.5938 2.6641 0.39062 5.2734 1.0117 7.7773 1.9375z" fill="#fff"/>
</svg>
