<?xml version="1.0" encoding="UTF-8"?>
<svg width="512pt" height="512pt" version="1.1" viewBox="0 0 512 512" xmlns="http://www.w3.org/2000/svg">
 <g fill="#fff">
  <path d="m331.53 393.6h-25.344c-1.5352 0-2.7734-1.2383-2.7734-2.7578l-0.003906-54.484c0-5.1523-4.1719-9.332-9.3242-9.332h-51.004c-5.1602 0-9.3281 4.1836-9.3281 9.332v54.48c0 1.5195-1.2461 2.7578-2.7656 2.7578h-25.34c-5.1523 0-6.8164 3.332-3.7188 7.4375l61.02 82.27c3.1133 4.1211 8.1562 4.1211 11.266 0l61.012-82.27c3.1094-4.1016 1.4492-7.4336-3.6953-7.4336z"/>
  <path d="m351.68 28.238c-1.4531-1.457-4.2188-2.6367-6.2773-2.6367h-219.87c-4.1328 0-7.4648 3.3477-7.4336 7.4648v137.16c0 2.0625 1.6758 3.7383 3.7383 3.7383h11.688c2.0703 0 3.7422-1.6758 3.7422-3.7383v-123.15c0-1.5195 1.2383-2.7656 2.7578-2.7656h189.88c1.5195 0 2.7578 1.2461 2.7578 2.7656l0.03125 56.531c-0.046875 4.125 3.2812 7.4648 7.3945 7.4648h57.047c1.5195 0 2.7656 1.2383 2.7656 2.7734v304.62c0 1.5195-1.2461 2.7578-2.7656 2.7578l-60.441-0.035156c-1.5273-0.015625-3.5078 0.98828-4.4102 2.2188l-10.441 14.152c-0.90625 1.2305-0.39062 2.2383 1.1328 2.2383l88.039 0.13672c4.1172 0 7.4648-3.332 7.4805-7.4492l0.19141-333.67c0.015625-2.0625-1.1719-4.9102-2.625-6.375z"/>
  <path d="m133.52 326.48h-11.688c-2.0625 0-3.7383 1.6602-3.7539 3.7266l0.015625 102.28c-0.015625 4.1172 3.3086 7.4492 7.4336 7.4492l88.184-0.13672c1.5352 0 2.0312-1.0039 1.1328-2.2383l-10.434-14.152c-0.91016-1.2227-2.8867-2.2305-4.4102-2.2188l-59.973 0.039062c-1.5195 0-2.7578-1.2383-2.7578-2.7578v-88.266c0-2.0625-1.6797-3.7227-3.75-3.7227z"/>
  <path d="m125.86 266.23c4.582 0 8.1406-1.3398 10.562-3.957 2.6406-2.8633 3.9922-7.2539 3.9922-13.066 0.027343-5.207-1.2578-9.1406-3.8008-11.703-2.2852-2.2891-5.5508-3.4492-9.7109-3.4492-0.92188 0-1.668 0.03125-2.3125 0.070313v32.098c0.37891 0.015625 0.74219 0.015625 1.0586 0.015625l0.21094-0.003906z"/>
  <path d="m100.85 310.7h240.76c4.1328 0 7.4961-3.293 7.4961-7.4648v-106.02c0-4.168-3.3633-7.4805-7.4961-7.4805h-240.81c-4.1523 0-7.4688 3.3086-7.4453 7.4805l-0.039062 106.02c0.019531 4.1758 3.3906 7.4648 7.5352 7.4648zm177.15-91.41h20.801l7.6758 13.402 7.5352-13.402h20.68l-17.727 30.109 19.367 31.766h-21.227l-8.8047-14.965-8.832 14.965h-21.113l19.324-32.137zm-19.641-1.3828c6.7695 0 11.848 1.5117 14.352 2.918l1.9961 1.1172-3.7852 16.051-3.375-1.5352c-2.668-1.2148-5.5703-1.8281-8.6406-1.8281-8.6211 0-13.574 5.7188-13.574 15.723 0 9.8359 4.9883 15.477 13.66 15.477 3.2422 0 6.7852-0.8125 8.5977-1.6016l3.543-1.5352 2.8477 15.984-1.9258 1.043c-2.4922 1.3789-7.7109 2.8281-14.844 2.8281-18.453 0-30.367-12.336-30.367-31.441-0.003906-19.863 12.664-33.199 31.516-33.199zm-90.863 17.023c1.3125-3.1953 3.125-6.1094 5.3945-8.6523 2.3203-2.6055 4.9414-4.5781 7.7617-5.8633 3.6133-1.6602 7.8281-2.5078 12.477-2.5078 8.5625 0 15.52 2.9609 20.711 8.8047 5.0898 5.7188 7.6758 13.66 7.6758 23.582 0 9.8516-2.5703 17.734-7.6133 23.453-5.168 5.8359-12.105 8.7969-20.629 8.7969-8.6055 0-15.586-2.9453-20.746-8.7539-5.0547-5.6875-7.6172-13.508-7.6172-23.23-0.011718-6.1094 0.86328-11.375 2.5859-15.629zm-61.414-15.336 2.5508-0.46094c4.5664-0.79297 10.844-1.2305 17.023-1.2305 10.535 0 17.812 2.1094 23.562 6.8359 6.5703 5.3047 10.055 13.625 10.055 24.035 0 13.676-5.3086 21.438-9.7656 25.535-6.043 5.4688-14.934 8.2344-26.43 8.2344-5.1914 0-10.254-0.29687-14.348-0.87891l-2.6523-0.39453z"/>
  <path d="m193.24 266.2c3.1641 0 5.582-1.1562 7.6133-3.6523 2.1562-2.6328 3.2422-6.8398 3.2422-12.52 0-5.6133-1.043-9.7266-3.125-12.266-1.9727-2.4023-4.4219-3.5234-7.7305-3.5234-3.3086 0-5.7812 1.1328-7.7891 3.5742-2.1055 2.5664-3.1797 6.7344-3.1797 12.363 0 5.5234 1.1055 9.668 3.2812 12.32 2.0781 2.5352 4.5195 3.7031 7.6875 3.7031z"/>
 </g>
</svg>
