<?xml version="1.0" encoding="UTF-8"?>
<svg width="512pt" height="512pt" version="1.1" viewBox="0 0 512 512" xmlns="http://www.w3.org/2000/svg">
 <g fill="#fff">
  <path d="m459.27 348.41v89.984c0 1.793-0.25781 3.457-0.64062 4.9922-1.793 8.832-9.6016 15.488-18.816 15.488h-367.75c-9.8555 0-18.047-7.5508-19.07-17.152-0.25781-1.1523-0.25781-2.1758-0.25781-3.457v-89.984c0-10.625 8.7031-19.199 19.199-19.199 5.2461 0 10.113 2.1758 13.566 5.6328 3.457 3.457 5.6328 8.3203 5.6328 13.566v72.062h329.86v-72.062c0-10.625 8.7031-19.199 19.199-19.199 5.2461 0 10.113 2.1758 13.566 5.6328 3.3359 3.5859 5.5117 8.4492 5.5117 13.695z"/>
  <path d="m366.72 258.3-94.336 94.336c-0.12891 0.25781-0.38281 0.38281-0.51172 0.51172-3.457 3.457-7.9375 5.6328-12.414 6.2734-0.38281 0-0.76953 0.12891-1.1523 0.12891-0.76953 0.12891-1.5352 0.12891-2.3047 0.12891l-2.1758-0.12891c-0.38281 0-0.76953-0.12891-1.1523-0.12891-4.6094-0.64062-8.9609-2.8164-12.414-6.2734-0.12891-0.12891-0.38281-0.38281-0.51172-0.51172l-94.336-94.336c-4.3516-4.3516-6.5273-10.113-6.5273-15.871 0-5.7617 2.1758-11.52 6.5273-15.871 8.7031-8.7031 22.91-8.7031 31.742 0l56.703 56.703v-207.75c0-12.289 10.113-22.398 22.398-22.398 6.1445 0 11.777 2.5586 15.871 6.5273 4.0977 4.0977 6.5273 9.6016 6.5273 15.871v207.74l56.703-56.703c8.7031-8.7031 22.91-8.7031 31.742 0 8.3281 8.832 8.3281 23.043-0.37891 31.746z"/>
 </g>
</svg>
