<?xml version="1.0" encoding="UTF-8"?>
<svg width="100pt" height="100pt" version="1.1" viewBox="0 0 100 100" xmlns="http://www.w3.org/2000/svg">
 <path d="m95.613 25.227c0.98828 1.5 1.5703 3.293 1.5703 5.2109v39.121c0 2.0898-0.68359 4.0273-1.8398 5.6016l-24.816-25.613 25.09-24.32zm-83.297-4.2852h75.367c2.3359 0 4.4805 0.85547 6.1367 2.2656l-32.684 31.684c-6.2031 6.0117-16.07 6.0117-22.273 0l-32.684-31.684c1.6602-1.4102 3.8047-2.2656 6.1367-2.2656zm81.145 56.145c-1.6016 1.2344-3.6094 1.9727-5.7773 1.9727h-75.367c-2.168 0-4.1719-0.73828-5.7773-1.9727l24.871-25.664 5.5742 5.4062c7.25 7.0273 18.781 7.0273 26.031 0l5.5742-5.4062zm-88.801-1.9258c-1.1562-1.5742-1.8398-3.5117-1.8398-5.6016v-39.121c0-1.9219 0.57813-3.7148 1.5703-5.2109l25.09 24.32-24.816 25.613z" fill="#fff" fill-rule="evenodd"/>
</svg>
