<?xml version="1.0" encoding="UTF-8"?>
<svg width="512pt" height="512pt" version="1.1" viewBox="0 0 512 512" xmlns="http://www.w3.org/2000/svg">
 <path d="m510.86 221.07v-1.082c-0.63672-5.7422-4.6836-10.531-10.242-12.117l-56.887-18.09c-2.3633-6.6445-5.0781-13.156-8.1367-19.512l29.582-50.234c3.0078-5.1094 2.5312-11.547-1.1953-16.156l-0.73828-0.91016c-16.191-18.309-33.5-35.598-51.824-51.77l-0.85156-0.68359h-0.003906c-4.4023-3.5195-10.465-4.1211-15.473-1.5352l-53.133 27.535c-6.3555-3.0938-12.867-5.8477-19.516-8.25l-14.562-56.434c-1.457-5.6719-6.2461-9.875-12.062-10.582h-1.0234c-24.547-1.5781-49.172-1.6133-73.727-0.11328h-1.082c-5.7422 0.63672-10.531 4.6836-12.117 10.242l-18.148 56.887c-6.582 2.3359-13.039 5.0117-19.34 8.0234l-50.348-29.641c-5.125-3.0156-11.586-2.543-16.215 1.1953l-0.85156 0.68359c-18.32 16.238-35.609 33.602-51.77 51.996l-0.68359 0.85156c-3.5547 4.3867-4.1797 10.457-1.5898 15.477l27.59 53.246c-3.0938 6.3164-5.8477 12.789-8.25 19.398l-56.434 14.621c-5.6719 1.457-9.875 6.2461-10.582 12.062v1.1367c-1.5273 24.457-1.5273 48.984 0 73.441v1.082c0.55469 5.7773 4.5625 10.641 10.129 12.289l56.887 18.148c2.3359 6.582 5.0117 13.039 8.0234 19.34l-29.641 50.348c-3.0352 5.1211-2.5586 11.59 1.1953 16.215l0.68359 0.85156c16.219 18.32 33.566 35.609 51.938 51.77l0.85156 0.68359h0.003906c4.3828 3.5977 10.488 4.2422 15.531 1.6484l53.246-27.59c6.3164 3.0703 12.793 5.8047 19.398 8.1914l14.621 56.492v-0.003906c1.4766 5.6523 6.2617 9.8281 12.062 10.527h1.1367c8.0781 0.73828 22.355 1.1367 36.691 1.1367 14.336 0 28.445-0.39844 36.75-1.1367h1.082c5.7773-0.55469 10.641-4.5625 12.289-10.129l18.148-56.887c6.6211-2.3086 13.113-4.9688 19.453-7.9648l50.234 29.582c5.1094 3.0078 11.547 2.5312 16.156-1.1953l0.91016-0.73828c18.312-16.207 35.605-33.535 51.77-51.883l0.68359-0.85156v-0.003906c3.5977-4.3828 4.2422-10.488 1.6484-15.531l-27.535-53.133c3.0586-6.3555 5.7734-12.867 8.1367-19.512l56.434-14.621c5.7617-1.4961 9.9844-6.4219 10.582-12.344v-1.0234c1.5625-24.457 1.6016-48.984 0.11328-73.445zm-187.28 48.469c-3.4531 17.137-13.285 32.32-27.512 42.477-14.227 10.156-31.781 14.523-49.109 12.219s-33.129-11.109-44.207-24.629c-11.078-13.523-16.605-30.75-15.453-48.191 1.1484-17.441 8.8828-33.793 21.637-45.746 12.758-11.949 29.578-18.605 47.059-18.617 4.5859 0.003907 9.1562 0.46094 13.652 1.3633 17.922 3.5977 33.684 14.164 43.816 29.375 10.133 15.215 13.812 33.828 10.23 51.75z" fill="#fff"/>
</svg>
