<?xml version="1.0" encoding="UTF-8"?>
<svg width="512pt" height="512pt" version="1.1" viewBox="0 0 512 512" xmlns="http://www.w3.org/2000/svg">
 <path d="m442.24 49.492c-4.0195-4.3359-9.6602-6.8047-15.57-6.8242h-341.34c-5.9102 0.019531-11.551 2.4883-15.57 6.8242-4.0547 4.3047-6.1406 10.102-5.7617 16l21.332 320c0.28516 3.9297 1.6523 7.7031 3.9492 10.906 2.2969 3.1992 5.4336 5.7031 9.0664 7.2266l149.33 64c5.3164 2.2539 11.324 2.2539 16.641 0l149.33-64c3.6328-1.5234 6.7695-4.0273 9.0664-7.2266 2.2969-3.2031 3.6641-6.9766 3.9492-10.906l21.332-320c0.37891-5.8984-1.707-11.695-5.7617-16zm-58.238 320-128 55.254-128-55.254-19.84-284.16h295.68zm-213.33-70.824v-34.133c0-4.7148 3.8203-8.5352 8.5312-8.5352h25.602c2.2617 0 4.4336 0.89844 6.0312 2.5 1.6016 1.6016 2.5 3.7695 2.5 6.0352v22.613l42.668 28.586 42.668-28.586v-52.48h-106.67c-5.6562 0-11.086-2.25-15.086-6.25s-6.2461-9.4258-6.2461-15.086v-64c0-5.6562 2.2461-11.082 6.2461-15.082 4-4.0039 9.4297-6.25 15.086-6.25h140.8c2.2617 0 4.4336 0.89844 6.0312 2.5 1.6016 1.6016 2.5 3.7695 2.5 6.0352v25.598c0 2.2656-0.89844 4.4336-2.5 6.0352-1.5977 1.6016-3.7695 2.5-6.0312 2.5h-119.47v21.332h106.67c5.6562 0 11.086 2.2461 15.086 6.25 4 4 6.2461 9.4258 6.2461 15.082v85.336c-0.035156 7.1367-3.6367 13.781-9.5977 17.707l-64 42.668v-0.003907c-3.4844 2.293-7.5625 3.5156-11.734 3.5156s-8.25-1.2227-11.734-3.5156l-64-42.668v0.003906c-5.9609-3.9258-9.5625-10.57-9.5977-17.707z" fill="#fff"/>
</svg>
