<?xml version="1.0" encoding="UTF-8"?>
<svg width="512pt" height="512pt" version="1.1" viewBox="0 0 512 512" xmlns="http://www.w3.org/2000/svg">
 <g fill="#fff">
  <path d="m274.23 483.32 61.039-82.277c3.0938-4.1016 1.4492-7.4336-3.7109-7.4336h-25.344c-1.5352 0-2.7734-1.2383-2.7734-2.7734v-54.473c0-5.1523-4.168-9.332-9.3242-9.332h-51.02c-5.1602 0-9.3398 4.1836-9.3398 9.332v54.465c0 1.5352-1.2383 2.7734-2.7578 2.7734h-25.34c-5.168 0-6.8242 3.332-3.7188 7.4336l61.039 82.277c3.1016 4.1094 8.1523 4.1094 11.25 0.007813z"/>
  <path d="m351.71 28.238c-1.4492-1.4492-4.2188-2.6367-6.2773-2.6367h-219.89c-4.1328 0-7.4648 3.3477-7.4375 7.4648v137.16c0 2.0703 1.6758 3.7422 3.7383 3.7422h11.711c2.043 0 3.7227-1.6758 3.7227-3.7422l-0.007813-123.15c0-1.5352 1.25-2.7656 2.7695-2.7656h189.91c1.5352 0 2.7578 1.2305 2.7578 2.7656l0.03125 56.531c-0.039063 4.1328 3.2812 7.4648 7.4102 7.4648h57.031c1.5352 0 2.7812 1.2383 2.7812 2.7656v304.64c0 1.5273-1.2461 2.7656-2.7812 2.7656l-60.438-0.054688c-1.5352 0-3.5156 0.98828-4.4102 2.2383l-10.449 14.137c-0.90625 1.2383-0.39453 2.2422 1.125 2.2422l88.055 0.13672c4.1172 0 7.4648-3.332 7.4805-7.4648l0.15234-333.67c0-2.0547-1.1719-4.9141-2.6367-6.3633z"/>
  <path d="m133.55 326.48h-11.711c-2.0625 0-3.7383 1.6758-3.7539 3.7383l0.015625 102.26c-0.015625 4.1328 3.3086 7.4648 7.4375 7.4648l88.195-0.13672c1.5352 0 2.0273-1.0039 1.125-2.2422l-10.449-14.137c-0.89453-1.2461-2.8828-2.2383-4.3984-2.2383l-59.969 0.054688c-1.5195 0-2.7695-1.2383-2.7695-2.7656l0.003907-88.262c-0.007813-2.0625-1.6875-3.7383-3.7266-3.7383z"/>
  <path d="m156.78 243.07c1.2539-0.46094 2.1758-1.1406 2.8828-2.0625 0.65625-0.89062 1.0039-1.9258 1.0039-3.1797 0-1.5664-0.47656-2.7383-1.3672-3.6602-1.0039-1.0273-2.2461-1.6172-3.8359-1.8828-1.0391-0.16797-3.6055-0.37891-9.8164-0.37891h-3.4062v11.945h4.3555c7.1367-0.003906 9.4961-0.57031 10.184-0.78125z"/>
  <path d="m218.4 268.26c5.1523 0 9.1562-1.4883 11.887-4.4492 2.9844-3.2344 4.5117-8.1914 4.5117-14.742 0.027344-5.8633-1.4062-10.281-4.2852-13.188-2.5703-2.582-6.25-3.8906-10.941-3.8906-1.0352 0-1.8828 0.046875-2.6172 0.10156v36.164c0.41797 0.011719 0.83984 0.011719 1.2031 0.011719l0.24219-0.003906z"/>
  <path d="m100.91 310.71h240.75c4.1211 0 7.4805-3.2969 7.4805-7.4648v-106.02c0-4.1797-3.3594-7.4805-7.4805-7.4805h-240.91c-4.1484 0-7.4648 3.3086-7.4375 7.4805l0.0625 106.02c0.019531 4.168 3.3828 7.4648 7.5312 7.4648zm168.99-96.5h53.012v18.379h-31.309v9.4961h27.934v16.648h-27.934v27.496h-21.699l0.003906-72.02zm-73.793 1.5 2.8789-0.52344c5.1523-0.89062 12.227-1.3945 19.191-1.3945 11.859 0 20.055 2.3867 26.543 7.7148 7.4102 5.9922 11.332 15.352 11.332 27.074 0 15.422-5.9844 24.156-10.992 28.793-6.8086 6.1523-16.828 9.2812-29.789 9.2812-5.8438 0-11.562-0.34766-16.164-1.0039l-2.9844-0.41797-0.003907-69.523zm-76.5-1.5h27.812c9.25 0 15.211 0.39062 18.242 1.1172 4.8555 1.1328 8.9844 3.6797 12.266 7.5508 3.2812 3.8516 4.9102 8.8164 4.9102 14.734 0 4.5469-0.95312 8.5-2.832 11.727-1.8672 3.1797-4.2891 5.7617-7.2461 7.5859-2.8477 1.8125-5.8203 3-8.8203 3.625-3.7695 0.6875-8.9531 0.97656-15.812 0.97656h-5.8711v24.699h-22.648z"/>
 </g>
</svg>
