<?xml version="1.0" encoding="UTF-8"?>
<svg width="512pt" height="512pt" version="1.1" viewBox="0 0 512 512" xmlns="http://www.w3.org/2000/svg">
 <g fill="#fff">
  <path d="m293.85 411.4v-72.051h-45.434v72.051h-50.188l73.762 87.047 73.762-87.047z"/>
  <path d="m207.58 211.6c-3.8828 0-6.0898 0.31641-7.2461 0.52344v19.531h6.3008c7.9805 0 12.707-3.9922 12.707-10.184-0.003906-6.5117-4.4141-9.7656-11.762-9.8711z"/>
  <path d="m416.68 157.85v-38.711c0-2.0312-0.85156-4.0898-2.2734-5.5391l-94.316-95.516c-1.2305-1.5352-3.7148-2.3398-5.6016-2.3398h-180.38c-4.3516 0-7.875 3.5273-7.875 7.875v134.23h-24.746v156.41h24.746v66.25c0 4.3516 3.5273 7.875 7.875 7.875h101.18v-15.754l-93.301 0.003906v-58.375h258.94v58.375h-93.945v15.754h101.82c4.3516 0 7.875-3.5234 7.875-7.875v-66.25h23.914v-156.41zm-94.316-115.05 67.578 68.465h-67.578zm-100.81 228.24c-1.1562-1.9961-2.8359-7.7695-4.9375-16.488-1.8906-8.8203-4.9336-11.234-11.445-11.34h-4.8281v27.828h-15.855v-69.828c5.1445-0.83984 12.809-1.4688 21.316-1.4688 10.5 0 17.852 1.5742 22.891 5.5664 4.1992 3.3594 6.5117 8.293 6.5117 14.805 0 9.0312-6.4062 15.227-12.496 17.43v0.31641c4.9336 1.9961 7.6641 6.7227 9.4492 13.23 2.207 7.9805 4.4102 17.223 5.7773 19.953zm79.5-57.336h-19.32v57.332h-16.062v-57.332h-19.008v-13.441h54.395v13.441zm57.031-0.3125h-27.195v16.172h25.414v13.02h-25.414v28.457h-16.066l-0.003906-70.773h43.266zm42.844-55.539h-258.94v-126.35h164.62v87.637c0 4.3516 3.5273 7.875 7.875 7.875h86.441z"/>
 </g>
</svg>
