<?xml version="1.0" encoding="UTF-8"?>
<svg xmlns="http://www.w3.org/2000/svg" xmlns:xlink="http://www.w3.org/1999/xlink" viewBox="0 0 384 384" width="384px" height="384px">
<g id="surface99821102">
<rect x="0" y="0" width="384" height="384" style="fill:rgb(11.372549%,11.372549%,12.54902%);fill-opacity:1;stroke:none;"/>
<path style=" stroke:none;fill-rule:nonzero;fill:rgb(100%,100%,100%);fill-opacity:1;" d="M 192 32 C 104 32 32 104 32 192 C 32 280 104 352 192 352 C 280 352 352 280 352 192 C 352 104 280 32 192 32 Z M 192 48 C 272 48 336 112 336 192 C 336 272 272 336 192 336 C 112 336 48 272 48 192 C 48 112 112 48 192 48 Z M 192 64 C 147.199219 64 107.210938 86.394531 84.8125 121.59375 L 92.8125 121.59375 C 107.210938 121.59375 128 120 128 120 C 134.398438 120 135.992188 129.585938 129.59375 131.1875 C 129.59375 131.1875 123.1875 132.8125 115.1875 132.8125 L 158.40625 259.1875 L 187.1875 174.40625 L 171.1875 131.1875 C 164.789062 131.1875 158.40625 129.59375 158.40625 129.59375 C 152.007812 129.59375 152 118.40625 160 118.40625 C 160 118.40625 180.792969 120 193.59375 120 C 206.394531 120 227.1875 118.40625 227.1875 118.40625 C 233.585938 118.40625 235.210938 127.992188 228.8125 129.59375 C 228.8125 129.59375 222.40625 131.1875 214.40625 131.1875 L 260.8125 259.1875 L 273.59375 216 C 273.59375 200 278.40625 187.199219 278.40625 176 C 278.40625 163.199219 271.988281 158.40625 267.1875 150.40625 C 260.789062 139.207031 256 131.199219 256 120 C 256 108.800781 265.613281 97.59375 276.8125 97.59375 L 278.40625 97.59375 C 256.007812 76.792969 225.601562 64 192 64 Z M 304 131.1875 C 304 135.988281 303.992188 139.199219 305.59375 144 C 305.59375 156.800781 304.011719 175.992188 300.8125 185.59375 C 291.210938 215.992188 262.40625 299.1875 262.40625 299.1875 C 262.40625 299.1875 263.992188 299.195312 265.59375 297.59375 C 299.195312 275.195312 320 236.800781 320 192 C 320 169.601562 313.601562 148.789062 304 131.1875 Z M 75.1875 139.1875 C 67.1875 155.1875 64 172.800781 64 192 C 64 243.199219 92.800781 286.386719 136 307.1875 Z M 193.59375 203.1875 L 155.1875 315.1875 C 166.386719 318.386719 179.199219 320 192 320 C 206.398438 320 220.789062 316.800781 235.1875 312 C 235.1875 312 235.195312 310.40625 233.59375 310.40625 Z M 193.59375 203.1875 "/>
</g>
</svg>
