<?xml version="1.0" encoding="UTF-8"?>
<svg width="512pt" height="512pt" version="1.1" viewBox="0 0 512 512" xmlns="http://www.w3.org/2000/svg">
 <path d="m473.6 140.8h-128v-38.402c0-7.168-5.6328-12.801-12.801-12.801l-153.6 0.003906c-7.168 0-12.801 5.6328-12.801 12.801v38.398h-128c-7.168 0-12.797 5.6328-12.797 12.801v256c0 7.168 5.6328 12.801 12.801 12.801h435.2c7.168 0 12.801-5.6328 12.801-12.801l-0.003906-256c0-7.168-5.6289-12.801-12.797-12.801zm-281.6-25.602h128v25.602h-128zm268.8 281.6h-409.6v-155.14c16.383 16.895 38.91 27.137 64 27.137h102.4l0.003906 12.801c0 7.168 5.6328 12.801 12.801 12.801h51.199c7.168 0 12.801-5.6328 12.801-12.801v-12.801h102.4c25.09 0 47.617-10.238 64-27.137zm-217.6-128v-25.602h25.602v25.602zm217.6-89.602c0 35.328-28.672 64-64 64h-102.4l-0.003906-12.801c0-7.168-5.6328-12.801-12.801-12.801l-51.199 0.003906c-7.168 0-12.801 5.6328-12.801 12.801v12.801h-102.4c-35.328-0.003906-64-28.676-64-64.004v-12.801h409.6z" fill="#fff"/>
</svg>
